<?xml version="1.0" encoding="utf-8"?>
<!-- Generator: Adobe Illustrator 26.0.3, SVG Export Plug-In . SVG Version: 6.00 Build 0)  -->
<svg version="1.1"
	 id="svg12" sodipodi:docname="logo.svg" xmlns:inkscape="http://www.inkscape.org/namespaces/inkscape" xmlns:sodipodi="http://sodipodi.sourceforge.net/DTD/sodipodi-0.dtd" xmlns:svg="http://www.w3.org/2000/svg"
	 xmlns="http://www.w3.org/2000/svg" xmlns:xlink="http://www.w3.org/1999/xlink" x="0px" y="0px" viewBox="0 0 90 30"
	 style="enable-background:new 0 0 90 30;" xml:space="preserve">
<style type="text/css">
	.st0{fill:url(#path6_00000084530116249995596130000000490503675923274411_);}
	.st1{fill:url(#path6_00000008847419751904366440000003114462901702441910_);}
	.st2{fill:url(#path6_00000159427466726311162600000014385177851899110537_);}
</style>
<sodipodi:namedview  bordercolor="#000000" borderopacity="0.25" id="namedview14" inkscape:deskcolor="#d1d1d1" inkscape:pagecheckerboard="0" inkscape:pageopacity="0.0" inkscape:showpageshadow="2" pagecolor="#ffffff">
	</sodipodi:namedview>
<linearGradient id="path6_00000135672625851675306340000015170246334577559996_" gradientUnits="userSpaceOnUse" x1="-876.3016" y1="534.243" x2="-875.3016" y2="534.243" gradientTransform="matrix(23.6474 0 0 -23.2014 20700.3945 12382.7588)">
	<stop  offset="0" style="stop-color:#24388B"/>
	<stop  offset="1" style="stop-color:#51C3EE"/>
</linearGradient>
<path id="path6" style="fill:url(#path6_00000135672625851675306340000015170246334577559996_);" d="M-7.8-24c-1.2,0-2.1,1-2.1,2.2
	c0,0,0,0,0,0v0v0c0,0,0,0,0,0c0,0,0,0,0,0l0,1.5c0,0,0,0,0,0.1c0,0,0,0,0,0c0,0.7,0.3,1.3,0.7,1.8c-0.4,0.5-0.7,1.2-0.7,1.9
	c0,0,0,0,0,0l0,5.3c0,0,0,0,0,0c0,0,0,0,0,0v0c0,0,0,0,0,0.1c0,0,0,0,0,0c0,0.8,0.3,1.5,0.8,2c-0.5,0.5-0.8,1.3-0.8,2.1v0
	c0,0,0,0,0,0l0,3.8c0,0,0,0,0,0c0,0,0,0,0,0v0c0,0,0,0,0,0.1c0,1.2,1,2.2,2.1,2.2c0.7,0,1.4-0.4,1.8-1c0.1,0.1,0.2,0.1,0.4,0.1
	c1.3,0.4,2.7-0.5,3-1.9c0-0.1,0-0.1,0-0.2C-1.5-3.3-0.1-3.8,0.5-5c0.5-1,0.5-2.1,0-3c0.3-0.3,0.6-0.7,0.8-1.1
	c0.8-1.7,0.3-3.7-1.1-4.8c0.2-0.4,0.3-0.8,0.3-1.3c0-1.4-0.9-2.6-2.2-2.8c0.5-1.3,0.1-2.9-1-3.8c-0.7-0.5-1.4-0.7-2.2-0.6
	c-0.3,0.1-0.6,0.2-0.9,0.3C-5.8-23.1-6.7-24-7.8-24L-7.8-24z M-10.4-24c-0.7,0-1.5,0.1-2.2,0.2l0,0l0,0c0,0,0,0,0,0.1l0,0
	c0.5,1.2-0.1,2.5-1.2,3c-1.2,0.5-2.5-0.1-3-1.2c0,0,0-0.1,0-0.1c-1.2,0.8-2.3,1.9-3.2,3.2c0.5,0.2,0.9,0.6,1.1,1.1l0,0
	c0.5,1.2-0.1,2.5-1.2,3c-0.5,0.2-1.1,0.2-1.6,0.1c-0.3,1.5-0.3,3.1,0,4.6c0,0,0,0,0.1,0c1.2-0.5,2.5,0.1,3,1.2l0,0
	c0.5,1.2-0.1,2.5-1.2,3c0,0-0.1,0-0.1,0c0.9,1.3,2,2.4,3.2,3.2c0.2-0.5,0.7-1,1.2-1.2c1.2-0.5,2.5,0,3,1.2l0,0
	c0.2,0.5,0.2,1.1,0,1.7c0.7,0.1,1.4,0.2,2.1,0.2v-6.8c-1.9,0-3.5-1.2-4.3-2.9c-1-2.4,0.1-5.2,2.5-6.2c0.5-0.2,1.1-0.4,1.7-0.4
	L-10.4-24L-10.4-24z M-7.8-23.4c0.8,0,1.5,0.7,1.5,1.7c0,0,0,0.1,0,0.1c-0.2,0.2-0.3,0.3-0.5,0.5c-0.1,0.1-0.1,0.3,0.1,0.4
	c0.1,0.1,0.3,0.1,0.4-0.1c0,0,0,0,0,0c0.8-1.2,2.2-1.4,3.2-0.6c1,0.8,1.3,2.4,0.5,3.6c-0.4,0.7-1.1,1-1.7,1.1c-0.1,0-0.1,0-0.2,0
	c0-0.7-0.3-1.4-0.8-1.9c0.3-0.5,0.5-1,0.5-1.6c0-0.2-0.1-0.3-0.3-0.3c-0.2,0-0.3,0.1-0.3,0.3c0,0,0,0,0,0c0,1.2-0.9,2.2-2,2.2
	c-1.1,0-2-1-2-2.2c0,0,0,0,0,0c0,0,0,0,0,0l0-1.3l0-0.2C-9.3-22.7-8.6-23.4-7.8-23.4L-7.8-23.4z M-5.6-18.1c0.7,0.7,0.8,2,0.1,2.9
	c-0.1,0.1-0.1,0.1-0.2,0.2c0,0-0.1,0-0.1,0.1c0,0,0-0.1-0.1-0.1c-0.4-0.5-1-0.9-1.7-0.9c0,0,0,0,0,0c-0.2,0-0.3,0.1-0.3,0.3
	c0,0.2,0.1,0.3,0.3,0.3c1,0.1,1.8,1.1,1.7,2.2c0,0.2,0,0.3-0.1,0.5c-0.1,0.2,0,0.3,0.2,0.4c0.2,0.1,0.3,0,0.4-0.2c0,0,0,0,0,0
	c0.1-0.2,0.1-0.4,0.1-0.6c0-0.5,0-0.9-0.2-1.3c0.2-0.1,0.3-0.3,0.4-0.4c0.3-0.4,0.5-0.8,0.5-1.2c0.7,0,1.4-0.2,2-0.7
	c0,0,0.1-0.1,0.1-0.1c0.1-0.1,0.3-0.3,0.4-0.5c0,0,0,0,0,0c1,0.1,1.8,1,1.8,2.2c0,0.3-0.1,0.6-0.2,0.9c0,0,0,0,0,0
	c-0.4-0.2-0.8-0.3-1.1-0.3c-0.4,0-0.7,0-1.1,0.1c-0.1-0.3-0.3-0.6-0.6-0.8c-0.1,0-0.1,0-0.2,0c-0.2,0-0.3,0.2-0.3,0.3
	c0,0.1,0.1,0.2,0.2,0.2c0.4,0.2,0.6,0.8,0.3,1.3c0,0.1-0.1,0.1-0.1,0.2c-0.1,0.1-0.1,0.3,0,0.4c0.1,0.1,0.3,0.1,0.4,0c0,0,0,0,0,0
	c0.1-0.1,0.2-0.2,0.2-0.3c0.1-0.2,0.2-0.5,0.2-0.7c0.7-0.2,1.4-0.1,2,0.3c1.4,0.8,1.9,2.7,1.2,4.2c-0.4,0.8-1,1.3-1.7,1.5
	C-1.1-7.8-1.4-7.8-1.8-8c-0.3-0.2-0.7-0.5-1-1c0,0,0,0,0,0C-2.3-9.3-2-9.9-2-10.5c0-0.2-0.1-0.3-0.3-0.3c0,0,0,0,0,0
	c-0.2,0-0.3,0.1-0.3,0.3c0,0.8-0.6,1.3-1.2,1.3c-0.1,0-0.2,0-0.3-0.1c-0.2-0.1-0.3,0-0.4,0.2c-0.1,0.2,0,0.3,0.2,0.4
	c0.1,0,0.3,0.1,0.5,0.1c0.2,0,0.4,0,0.6-0.1c0,0,0,0,0,0c0.3,0.5,0.8,1,1.2,1.2c0.4,0.2,0.9,0.3,1.4,0.1C-0.4-7.4-0.2-7.5,0-7.6
	C0.4-6.9,0.4-6,0-5.3c-0.6,1-1.7,1.4-2.6,0.9c-0.1-1.1-0.8-2.1-1.8-2.4c0.1-0.5,0-1-0.3-1.5C-4.8-8.4-4.9-8.4-5-8.4
	c-0.2,0-0.3,0.1-0.3,0.3c0,0,0,0,0,0c0,0,0,0,0,0c0,0,0,0.1,0,0.1C-4.9-7.4-5-6.5-5.5-6.1C-5.6-6-5.7-5.9-5.8-5.9
	C-5.9-5.8-6-5.7-5.9-5.5c0.1,0.2,0.2,0.2,0.4,0.2c0,0,0,0,0,0c0.1-0.1,0.3-0.1,0.4-0.2C-4.9-5.8-4.7-6-4.6-6.2c0,0,0,0,0,0
	c1,0.3,1.6,1.4,1.3,2.5c-0.2,0.8-0.8,1.4-1.5,1.5c-0.1,0-0.1,0-0.2,0c-0.1,0-0.2,0-0.4,0c-0.1,0-0.1,0-0.2,0c-0.1,0-0.2-0.1-0.3-0.1
	c0.1-0.2,0.1-0.5,0.1-0.8c0-0.2-0.1-0.3-0.3-0.3c-0.2,0-0.3,0.1-0.3,0.3c0,0,0,0,0,0c0,0.9-0.6,1.6-1.4,1.7c-0.1,0-0.1,0-0.2,0
	c-0.8,0-1.5-0.7-1.5-1.7c0,0,0,0,0,0l0-3.7c0,0,0,0,0,0C-9.4-8-8.5-9.1-7.5-9.1c0.1,0.3,0.3,0.6,0.6,0.8c0.1,0.1,0.3,0.2,0.4,0.2
	c0.2,0.1,0.3,0,0.4-0.1c0.1-0.2,0-0.3-0.1-0.4c0,0,0,0,0,0c-0.1,0-0.2-0.1-0.3-0.2c-0.5-0.4-0.6-1.3-0.2-1.9
	c0.1-0.1,0.1-0.3-0.1-0.4c-0.1,0-0.1-0.1-0.2-0.1c-0.1,0-0.2,0.1-0.2,0.1c-0.3,0.4-0.4,0.8-0.4,1.3c-0.4,0-0.7,0.2-1,0.4
	c-0.4-0.4-0.7-1-0.7-1.7l0-2.6l0-2.7c0,0,0,0,0,0c0-0.6,0.2-1.1,0.5-1.5c0.4,0.3,0.9,0.5,1.5,0.5C-6.6-17.4-6-17.6-5.6-18.1
	L-5.6-18.1z"/>
<linearGradient id="path6_00000103244952639555458840000010806540443313561473_" gradientUnits="userSpaceOnUse" x1="-872.7236" y1="533.0616" x2="-871.7236" y2="533.0616" gradientTransform="matrix(23.6474 0 0 -23.2014 20700.3945 12382.7588)">
	<stop  offset="0" style="stop-color:#24388B"/>
	<stop  offset="1" style="stop-color:#51C3EE"/>
</linearGradient>
<path id="path6_00000023998336524472085030000016366781717148884393_" style="fill:url(#path6_00000103244952639555458840000010806540443313561473_);" d="
	M76.9,3.4c-1.2,0-2.1,1-2.1,2.2c0,0,0,0,0,0v0v0c0,0,0,0,0,0c0,0,0,0,0,0l0,1.5c0,0,0,0,0,0.1c0,0,0,0,0,0c0,0.7,0.3,1.3,0.7,1.8
	c-0.4,0.5-0.7,1.2-0.7,1.9c0,0,0,0,0,0l0,5.3c0,0,0,0,0,0c0,0,0,0,0,0v0c0,0,0,0,0,0.1c0,0,0,0,0,0c0,0.8,0.3,1.5,0.8,2
	c-0.5,0.5-0.8,1.3-0.8,2.1v0c0,0,0,0,0,0l0,3.8c0,0,0,0,0,0c0,0,0,0,0,0v0c0,0,0,0,0,0.1c0,1.2,1,2.2,2.1,2.2c0.7,0,1.4-0.4,1.8-1
	c0.1,0.1,0.2,0.1,0.4,0.1c1.3,0.4,2.7-0.5,3-1.9c0-0.1,0-0.1,0-0.2c1.2,0.4,2.5-0.1,3.2-1.3c0.5-1,0.5-2.1,0-3
	c0.3-0.3,0.6-0.7,0.8-1.1c0.8-1.7,0.3-3.7-1.1-4.8c0.2-0.4,0.3-0.8,0.3-1.3c0-1.4-0.9-2.6-2.2-2.8c0.5-1.3,0.1-2.9-1-3.8
	c-0.7-0.5-1.4-0.7-2.2-0.6c-0.3,0.1-0.6,0.2-0.9,0.3C78.8,4.3,78,3.4,76.9,3.4L76.9,3.4z M74.2,3.4c-0.7,0-1.5,0.1-2.2,0.2l0,0l0,0
	c0,0,0,0,0,0.1l0,0c0.5,1.2-0.1,2.5-1.2,3c-1.2,0.5-2.5-0.1-3-1.2c0,0,0-0.1,0-0.1c-1.2,0.8-2.3,1.9-3.2,3.2
	c0.5,0.2,0.9,0.6,1.1,1.1l0,0c0.5,1.2-0.1,2.5-1.2,3c-0.5,0.2-1.1,0.2-1.6,0.1c-0.3,1.5-0.3,3.1,0,4.6c0,0,0,0,0.1,0
	c1.2-0.5,2.5,0.1,3,1.2l0,0c0.5,1.2-0.1,2.5-1.2,3c0,0-0.1,0-0.1,0c0.9,1.3,2,2.4,3.2,3.2c0.2-0.5,0.7-1,1.2-1.2
	c1.2-0.5,2.5,0,3,1.2l0,0c0.2,0.5,0.2,1.1,0,1.7c0.7,0.1,1.4,0.2,2.1,0.2v-6.8c-1.9,0-3.5-1.2-4.3-2.9c-1-2.4,0.1-5.2,2.5-6.2
	c0.5-0.2,1.1-0.4,1.7-0.4L74.2,3.4L74.2,3.4z M76.9,4c0.8,0,1.5,0.7,1.5,1.7c0,0,0,0.1,0,0.1C78.2,6,78.1,6.2,78,6.4
	c-0.1,0.1-0.1,0.3,0.1,0.4c0.1,0.1,0.3,0.1,0.4-0.1c0,0,0,0,0,0c0.8-1.2,2.2-1.4,3.2-0.6c1,0.8,1.3,2.4,0.5,3.6
	c-0.4,0.7-1.1,1-1.7,1.1c-0.1,0-0.1,0-0.2,0c0-0.7-0.3-1.4-0.8-1.9c0.3-0.5,0.5-1,0.5-1.6c0-0.2-0.1-0.3-0.3-0.3
	c-0.2,0-0.3,0.1-0.3,0.3c0,0,0,0,0,0c0,1.2-0.9,2.2-2,2.2c-1.1,0-2-1-2-2.2c0,0,0,0,0,0c0,0,0,0,0,0l0-1.3l0-0.2
	C75.3,4.7,76,4,76.9,4L76.9,4z M79.1,9.3c0.7,0.7,0.8,2,0.1,2.9c-0.1,0.1-0.1,0.1-0.2,0.2c0,0-0.1,0-0.1,0.1c0,0,0-0.1-0.1-0.1
	c-0.4-0.5-1-0.9-1.7-0.9c0,0,0,0,0,0c-0.2,0-0.3,0.1-0.3,0.3c0,0.2,0.1,0.3,0.3,0.3c1,0.1,1.8,1.1,1.7,2.2c0,0.2,0,0.3-0.1,0.5
	c-0.1,0.2,0,0.3,0.2,0.4s0.3,0,0.4-0.2c0,0,0,0,0,0c0.1-0.2,0.1-0.4,0.1-0.6c0-0.5,0-0.9-0.2-1.3c0.2-0.1,0.3-0.3,0.4-0.4
	c0.3-0.4,0.5-0.8,0.5-1.2c0.7,0,1.4-0.2,2-0.7c0,0,0.1-0.1,0.1-0.1c0.1-0.1,0.3-0.3,0.4-0.5c0,0,0,0,0,0c1,0.1,1.8,1,1.8,2.2
	c0,0.3-0.1,0.6-0.2,0.9c0,0,0,0,0,0c-0.4-0.2-0.8-0.3-1.1-0.3c-0.4,0-0.7,0-1.1,0.1c-0.1-0.3-0.3-0.6-0.6-0.8c-0.1,0-0.1,0-0.2,0
	c-0.2,0-0.3,0.2-0.3,0.3c0,0.1,0.1,0.2,0.2,0.2c0.4,0.2,0.6,0.8,0.3,1.3c0,0.1-0.1,0.1-0.1,0.2c-0.1,0.1-0.1,0.3,0,0.4
	c0.1,0.1,0.3,0.1,0.4,0c0,0,0,0,0,0c0.1-0.1,0.2-0.2,0.2-0.3c0.1-0.2,0.2-0.5,0.2-0.7c0.7-0.2,1.4-0.1,2,0.3
	c1.4,0.8,1.9,2.7,1.2,4.2c-0.4,0.8-1,1.3-1.7,1.5c-0.3,0.1-0.6,0.1-0.9-0.1c-0.3-0.2-0.7-0.5-1-1c0,0,0,0,0,0
	c0.4-0.3,0.7-0.9,0.7-1.5c0-0.2-0.1-0.3-0.3-0.3c0,0,0,0,0,0c-0.2,0-0.3,0.1-0.3,0.3c0,0.8-0.6,1.3-1.2,1.3c-0.1,0-0.2,0-0.3-0.1
	c-0.2-0.1-0.3,0-0.4,0.2c-0.1,0.2,0,0.3,0.2,0.4c0.1,0,0.3,0.1,0.5,0.1c0.2,0,0.4,0,0.6-0.1c0,0,0,0,0,0c0.3,0.5,0.8,1,1.2,1.2
	c0.4,0.2,0.9,0.3,1.4,0.1c0.2-0.1,0.4-0.2,0.7-0.3c0.4,0.7,0.4,1.6,0,2.3c-0.6,1-1.7,1.4-2.6,0.9c-0.1-1.1-0.8-2.1-1.8-2.4
	c0.1-0.5,0-1-0.3-1.5C79.8,19,79.7,19,79.6,19c-0.2,0-0.3,0.1-0.3,0.3c0,0,0,0,0,0c0,0,0,0,0,0c0,0,0,0.1,0,0.1
	c0.4,0.6,0.3,1.5-0.2,1.9c-0.1,0.1-0.2,0.1-0.3,0.2c-0.2,0.1-0.2,0.2-0.2,0.4s0.2,0.2,0.4,0.2c0,0,0,0,0,0c0.1-0.1,0.3-0.1,0.4-0.2
	c0.2-0.2,0.4-0.4,0.5-0.6c0,0,0,0,0,0c1,0.3,1.6,1.4,1.3,2.5c-0.2,0.8-0.8,1.4-1.5,1.5c-0.1,0-0.1,0-0.2,0c-0.1,0-0.2,0-0.4,0
	c-0.1,0-0.1,0-0.2,0c-0.1,0-0.2-0.1-0.3-0.1c0.1-0.2,0.1-0.5,0.1-0.8c0-0.2-0.1-0.3-0.3-0.3c-0.2,0-0.3,0.1-0.3,0.3c0,0,0,0,0,0
	c0,0.9-0.6,1.6-1.4,1.7c-0.1,0-0.1,0-0.2,0c-0.8,0-1.5-0.7-1.5-1.7c0,0,0,0,0,0l0-3.7c0,0,0,0,0,0c-0.1-1.2,0.8-2.2,1.9-2.3
	c0.1,0.3,0.3,0.6,0.6,0.8c0.1,0.1,0.3,0.2,0.4,0.2c0.2,0.1,0.3,0,0.4-0.1c0.1-0.2,0-0.3-0.1-0.4c0,0,0,0,0,0c-0.1,0-0.2-0.1-0.3-0.2
	c-0.5-0.4-0.6-1.3-0.2-1.9c0.1-0.1,0.1-0.3-0.1-0.4c-0.1,0-0.1-0.1-0.2-0.1c-0.1,0-0.2,0.1-0.2,0.1c-0.3,0.4-0.4,0.8-0.4,1.3
	c-0.4,0-0.7,0.2-1,0.4c-0.4-0.4-0.7-1-0.7-1.7l0-2.6l0-2.7c0,0,0,0,0,0c0-0.6,0.2-1.1,0.5-1.5c0.4,0.3,0.9,0.5,1.5,0.5
	C78,10,78.6,9.8,79.1,9.3L79.1,9.3z"/>
<g id="SvgjsG10991" transform="matrix(4.139081369744399,0,0,4.139081369744399,97.59891273009414,7.235048519070212)">
	<path id="path9" d="M-14.8,12.1c-0.1-0.1-0.2-0.1-0.4-0.2s-0.2-0.1-0.3-0.2c-0.1-0.1-0.1-0.2-0.2-0.3c0-0.1-0.1-0.3-0.1-0.4
		c0-0.2,0-0.4,0.1-0.5c0.1-0.2,0.2-0.3,0.3-0.4c0.1-0.1,0.3-0.2,0.5-0.2c0.2-0.1,0.4-0.1,0.6-0.1c0.2,0,0.4,0,0.6,0.1
		c0.2,0,0.4,0.1,0.7,0.2l-0.4,0.7c-0.3-0.1-0.5-0.2-0.8-0.2c-0.1,0-0.1,0-0.2,0c-0.1,0-0.1,0-0.2,0.1c0,0-0.1,0.1-0.1,0.1
		s0,0.1,0,0.2c0,0.1,0,0.1,0,0.2c0,0,0.1,0.1,0.1,0.1c0,0,0.1,0.1,0.1,0.1s0.1,0,0.2,0.1l0.3,0.1c0.1,0.1,0.3,0.1,0.4,0.2
		c0.1,0.1,0.2,0.1,0.3,0.2s0.2,0.2,0.2,0.3s0.1,0.3,0.1,0.5s0,0.4-0.1,0.5c-0.1,0.2-0.2,0.3-0.3,0.4s-0.3,0.2-0.5,0.3
		s-0.4,0.1-0.7,0.1c-0.1,0-0.2,0-0.3,0c-0.1,0-0.2,0-0.3,0c-0.1,0-0.2,0-0.3-0.1c-0.1,0-0.2-0.1-0.3-0.1l0.2-0.8
		c0.2,0,0.3,0.1,0.5,0.1c0.2,0,0.3,0.1,0.5,0.1c0.2,0,0.4,0,0.5-0.1c0.1-0.1,0.2-0.2,0.2-0.3c0-0.1,0-0.2,0-0.2
		c0-0.1-0.1-0.1-0.1-0.1c-0.1,0-0.1-0.1-0.2-0.1l-0.2-0.1L-14.8,12.1z M-12.4,10.9l0.9,0v1.6c0,0.1,0,0.3,0,0.3
		c0,0.1,0.1,0.2,0.1,0.2c0,0.1,0.1,0.1,0.2,0.1c0.1,0,0.2,0,0.2,0c0.1,0,0.2,0,0.3,0l0-0.1v-2.2h0.9v2.9c-0.1,0.1-0.3,0.1-0.5,0.1
		c-0.2,0-0.4,0.1-0.6,0.1c-0.2,0-0.4,0-0.6,0c-0.2,0-0.3-0.1-0.5-0.2c-0.1-0.1-0.2-0.3-0.3-0.4s-0.1-0.5-0.1-0.8
		C-12.4,12.6-12.4,10.9-12.4,10.9z M-9,11.7h-0.5l0.4-0.7h0.9l0.1,0.3c0.1-0.1,0.2-0.2,0.3-0.3s0.3-0.1,0.5-0.1
		c0.4,0,0.7,0.1,0.9,0.4c0.1-0.1,0.2-0.2,0.3-0.3c0.1-0.1,0.3-0.1,0.5-0.1c0.4,0,0.6,0.1,0.8,0.3c0.2,0.2,0.2,0.5,0.2,0.9V14h-0.9
		v-1.8c0-0.2,0-0.3-0.1-0.4c-0.1-0.1-0.2-0.1-0.3-0.1c-0.1,0-0.1,0-0.2,0c-0.1,0-0.1,0-0.1,0.1c0,0-0.1,0.1-0.1,0.2
		c0,0.1,0,0.2,0,0.3V14h-0.9v-1.8c0-0.2,0-0.3-0.1-0.4s-0.2-0.1-0.3-0.1c-0.1,0-0.1,0-0.2,0c-0.1,0-0.1,0-0.1,0.1S-8,11.9-8,12
		c0,0.1,0,0.2,0,0.3V14H-9L-9,11.7L-9,11.7z M-2.8,13.2h1.4V14H-4v-0.7l0.1-0.1l0.2-0.3l0.3-0.4l0.4-0.4l0.3-0.3l0.2-0.2l-0.1,0
		h-0.7V12L-4,11.8v-0.8h2.4v0.7L-2.8,13.2z"/>
</g>
<path id="path9_00000167372384383321782300000012871494746750961560_" d="M-9.1,58c-0.5-0.2-1-0.4-1.5-0.7s-0.8-0.6-1.2-0.9
	c-0.3-0.4-0.6-0.8-0.8-1.3c-0.2-0.5-0.3-1.1-0.3-1.8c0-0.8,0.1-1.6,0.4-2.2c0.3-0.6,0.7-1.2,1.2-1.6c0.5-0.4,1.2-0.8,1.9-1
	c0.8-0.2,1.6-0.3,2.5-0.3c0.8,0,1.5,0.1,2.3,0.2c0.8,0.2,1.7,0.4,2.8,0.8l-1.7,3c-1.1-0.5-2.2-0.8-3.4-0.8c-0.2,0-0.5,0-0.7,0.1
	s-0.5,0.1-0.7,0.3c-0.2,0.1-0.4,0.3-0.5,0.5c-0.1,0.2-0.2,0.5-0.2,0.8c0,0.3,0.1,0.5,0.2,0.7c0.1,0.2,0.2,0.3,0.4,0.5
	c0.2,0.1,0.4,0.2,0.6,0.3c0.2,0.1,0.4,0.2,0.6,0.3l1.4,0.6c0.6,0.2,1.2,0.5,1.7,0.8s1,0.6,1.3,1s0.6,0.9,0.8,1.4
	c0.2,0.6,0.3,1.2,0.3,2.1c0,0.8-0.2,1.6-0.5,2.3c-0.3,0.7-0.7,1.3-1.3,1.7s-1.3,0.9-2.1,1.1S-7,66-8.1,66c-0.5,0-1,0-1.4,0
	c-0.4,0-0.8-0.1-1.2-0.2c-0.4-0.1-0.8-0.2-1.2-0.3c-0.4-0.1-0.8-0.3-1.3-0.4l0.8-3.4c0.7,0.2,1.3,0.3,2,0.5s1.3,0.2,2,0.2
	c0.9,0,1.6-0.1,2.1-0.4c0.5-0.2,0.8-0.7,0.8-1.4c0-0.3,0-0.6-0.1-0.9c-0.1-0.2-0.3-0.4-0.5-0.6c-0.2-0.2-0.4-0.3-0.7-0.4l-0.8-0.3
	L-9.1,58z M-0.6,54.5l3.7,0v6.7c0,0.6,0,1,0.1,1.4s0.2,0.7,0.4,0.9s0.4,0.4,0.7,0.5C4.7,64,5.1,64,5.4,64c0.5,0,0.9,0,1.3-0.1l0-0.4
	v-9.1h3.7l-0.3,10.4c0,1.1-0.8,2.1-1.9,2.3h0c-0.8,0.2-1.7,0.2-2.6,0.2c-0.8,0-1.6-0.1-2.4-0.2c-0.8-0.1-1.4-0.4-2-0.8
	c-0.6-0.4-1-1-1.4-1.8c-0.3-0.8-0.5-1.9-0.5-3.3C-0.6,61.2-0.6,54.5-0.6,54.5z M10.4,60.9l-3.7,0v-6.7c0-0.6,0-1-0.1-1.4
	c-0.1-0.4-0.2-0.7-0.4-0.9c-0.2-0.2-0.4-0.4-0.7-0.5c-0.3-0.1-0.6-0.1-1-0.1c-0.5,0-0.9,0-1.3,0.1l0,0.4v9.1h-3.7l0.3-10.4
	c0-1.1,0.8-2,1.9-2.2l0,0C2.4,48.1,3.3,48,4.1,48c0.8,0,1.6,0.1,2.4,0.2c0.8,0.1,1.4,0.4,2,0.8c0.6,0.4,1.1,1,1.4,1.8
	c0.3,1.2,0.5,1.9,0.5,3.3C10.4,54.2,10.4,60.9,10.4,60.9z M95.4,51.1h-2l1.6-3h3.5l0.3,1.4c0.4-0.4,0.8-0.8,1.4-1
	c0.5-0.3,1.2-0.4,1.9-0.4c1.7,0,2.9,0.6,3.6,1.8c0.4-0.6,0.9-1,1.4-1.3c0.6-0.3,1.2-0.5,2.1-0.5c1.5,0,2.5,0.4,3.2,1.2
	c0.7,0.8,1,2,1,3.7v8h-3.7v-7.3c0-0.8-0.1-1.3-0.4-1.7c-0.3-0.3-0.7-0.5-1.3-0.5c-0.3,0-0.5,0-0.7,0.1c-0.2,0.1-0.4,0.2-0.6,0.3
	s-0.3,0.4-0.4,0.6c-0.1,0.3-0.1,0.6-0.1,1.1v7.4h-3.7v-7.4c0-0.8-0.1-1.4-0.4-1.7c-0.3-0.3-0.7-0.4-1.2-0.4c-0.2,0-0.5,0-0.7,0.1
	c-0.2,0-0.4,0.1-0.6,0.3c-0.2,0.1-0.3,0.4-0.4,0.6s-0.1,0.6-0.1,1.1v7.4h-3.7L95.4,51.1L95.4,51.1z M-25.2,65l-1.8-0.4
	c0-0.5,0.1-1.9,0.1-1.9c-0.9-0.3-1.9-1.8-0.9-2.5c0.5-0.4-0.4-1.2-0.4-1.9c0-1.7,0.3-2.1,1.5-2.8c-0.6-0.4-0.7-1.7-1-2.3
	s-0.5-1.3-0.5-2.1c0-1.5,0.4-2.5,1.2-3.2c0.8-0.7,2-1,3.7-1l8,0l0,3.7l-7.3,0c-0.8,0-1.3,0.1-1.7,0.4c-0.3,0.3-0.5,0.7-0.5,1.3
	c0,0.3,0,0.5,0.1,0.7s0.2,0.4,0.3,0.6c0.2,0.2,0.4,0.3,0.6,0.4s0.6,0.1,1.1,0.1l7.4,0l0,3.7l-7.4,0c-0.8,0-1.4,0.1-1.7,0.4
	c-0.3,0.3-0.4,0.7-0.4,1.2c0,0.2,0,0.5,0.1,0.7s0.1,0.4,0.3,0.6c0.1,0.2,0.4,0.3,0.6,0.4c0.3,0.1,0.6,0.1,1.1,0.2l7.4,0l0,3.7
	L-25.2,65L-25.2,65z M120.9,57.7h5.6v3.2h-10.4v-2.8l0.4-0.5l1-1.2l1.4-1.5l1.5-1.6l1.3-1.4l0.8-0.9l-0.4,0.1h-2.8v1.3l-3.1-0.9
	v-3.5h10.1V51L120.9,57.7z"/>
<g>
	<path d="M11,25.1c-2,0-3.8-0.4-5.3-1.2c-1.5-0.8-2.6-1.9-3.4-3.4s-1.2-3.2-1.2-5.3c0-2,0.4-3.7,1.2-5.2s1.9-2.6,3.4-3.4
		s3.2-1.2,5.1-1.2c1.4,0,2.7,0.2,3.9,0.7c1.2,0.4,2.2,1.1,3,1.9c0.8,0.8,1.5,1.9,1.9,3.1c0.4,1.2,0.7,2.6,0.7,4.1v1.6h-17V13H14
		c0-0.5-0.1-1-0.4-1.4c-0.3-0.4-0.6-0.7-1.1-1c-0.5-0.2-1-0.4-1.5-0.4c-0.6,0-1.1,0.1-1.5,0.4s-0.8,0.6-1.1,1
		c-0.3,0.4-0.4,0.9-0.4,1.5v4.1c0,0.6,0.1,1.2,0.4,1.6c0.3,0.5,0.6,0.9,1.1,1.1c0.5,0.3,1.1,0.4,1.7,0.4c0.5,0,0.9-0.1,1.3-0.2
		c0.4-0.1,0.7-0.3,1-0.6c0.3-0.3,0.5-0.6,0.6-0.9h6.3c-0.2,1.3-0.7,2.5-1.5,3.4c-0.8,1-1.9,1.7-3.2,2.3C14.3,24.8,12.8,25.1,11,25.1
		z"/>
	<path d="M40.6,11.8h-6.3c0-0.4-0.2-0.7-0.4-1c-0.2-0.3-0.5-0.5-0.9-0.7C32.5,10,32.1,10,31.7,10c-0.6,0-1.1,0.1-1.5,0.3
		c-0.4,0.2-0.6,0.5-0.6,0.9c0,0.3,0.1,0.5,0.4,0.8c0.3,0.2,0.7,0.4,1.5,0.6l3.9,0.7c2,0.4,3.4,1,4.4,1.8c1,0.8,1.4,2,1.4,3.4
		c0,1.4-0.4,2.5-1.2,3.5c-0.8,1-1.9,1.8-3.3,2.3c-1.4,0.5-3,0.8-4.7,0.8c-2.9,0-5.2-0.6-6.8-1.8c-1.6-1.2-2.6-2.8-2.8-4.7h6.8
		c0.1,0.6,0.4,1.1,0.9,1.4c0.5,0.3,1.2,0.5,1.9,0.5c0.6,0,1.1-0.1,1.6-0.3c0.4-0.2,0.6-0.5,0.6-0.9c0-0.4-0.2-0.7-0.5-0.9
		c-0.4-0.2-0.9-0.4-1.6-0.5l-3.4-0.6c-1.9-0.3-3.4-1-4.4-1.9c-1-1-1.4-2.2-1.4-3.7c0-1.3,0.3-2.4,1-3.4c0.7-0.9,1.7-1.6,3-2.1
		c1.3-0.5,2.9-0.7,4.7-0.7c2.8,0,4.9,0.6,6.5,1.7C39.6,8.2,40.5,9.8,40.6,11.8z"/>
	<path d="M61.1,11.8h-6.3c0-0.4-0.2-0.7-0.4-1c-0.2-0.3-0.5-0.5-0.9-0.7C53.1,10,52.7,10,52.2,10c-0.6,0-1.1,0.1-1.5,0.3
		c-0.4,0.2-0.6,0.5-0.6,0.9c0,0.3,0.1,0.5,0.4,0.8c0.3,0.2,0.7,0.4,1.5,0.6l3.9,0.7c2,0.4,3.4,1,4.4,1.8c1,0.8,1.4,2,1.4,3.4
		c0,1.4-0.4,2.5-1.2,3.5c-0.8,1-1.9,1.8-3.3,2.3c-1.4,0.5-3,0.8-4.7,0.8c-2.9,0-5.2-0.6-6.8-1.8c-1.6-1.2-2.6-2.8-2.8-4.7h6.8
		c0.1,0.6,0.4,1.1,0.9,1.4c0.5,0.3,1.2,0.5,1.9,0.5c0.6,0,1.1-0.1,1.6-0.3c0.4-0.2,0.6-0.5,0.6-0.9c0-0.4-0.2-0.7-0.5-0.9
		c-0.4-0.2-0.9-0.4-1.6-0.5l-3.4-0.6c-1.9-0.3-3.4-1-4.4-1.9c-1-1-1.5-2.2-1.4-3.7c0-1.3,0.3-2.4,1.1-3.4c0.7-0.9,1.7-1.6,3-2.1
		c1.3-0.5,2.9-0.7,4.7-0.7c2.8,0,4.9,0.6,6.5,1.7C60.2,8.2,61,9.8,61.1,11.8z"/>
</g>
<path d="M25.8-1.7c-2.6,0-4.9-0.5-6.7-1.6c-1.9-1-3.3-2.5-4.3-4.4c-1-1.9-1.5-4-1.5-6.5c0-2.5,0.5-4.6,1.5-6.5
	c1-1.9,2.4-3.3,4.3-4.4c1.9-1,4.1-1.6,6.7-1.6c2.6,0,4.9,0.5,6.7,1.6c1.9,1,3.3,2.5,4.3,4.4c1,1.9,1.5,4,1.5,6.5
	c0,2.5-0.5,4.6-1.5,6.5c-1,1.9-2.4,3.3-4.3,4.4C30.7-2.2,28.5-1.7,25.8-1.7z M25.9-8.1c0.7,0,1.4-0.2,1.9-0.7
	c0.5-0.5,0.9-1.2,1.2-2.1c0.3-0.9,0.4-2,0.4-3.3c0-1.3-0.1-2.4-0.4-3.3c-0.3-0.9-0.7-1.6-1.2-2.1c-0.5-0.5-1.2-0.7-1.9-0.7
	c-0.8,0-1.4,0.2-2,0.7c-0.6,0.5-1,1.2-1.3,2.1c-0.3,0.9-0.4,2-0.4,3.3c0,1.3,0.1,2.3,0.4,3.3c0.3,0.9,0.7,1.6,1.3,2.1
	C24.5-8.3,25.1-8.1,25.9-8.1z"/>
<g id="SvgjsG10990" transform="matrix(0.8277789588550654,0,0,0.8277789588550654,-1.4980845825363693,20.448785234598923)">
	
		<linearGradient id="path6_00000095303456968346214950000008681395829634217906_" gradientUnits="userSpaceOnUse" x1="-1052.4286" y1="619.2629" x2="-1051.4286" y2="619.2629" gradientTransform="matrix(23.6474 0 0 -23.2014 24966.1641 14361.1641)">
		<stop  offset="0" style="stop-color:#EF4136"/>
		<stop  offset="1" style="stop-color:#FBB040"/>
	</linearGradient>
	
		<path id="path6_00000048494029745104533190000014900142819124521893_" style="fill:url(#path6_00000095303456968346214950000008681395829634217906_);" d="
		M96-20.6c-1.4,0-2.5,1.2-2.6,2.7c0,0,0,0,0,0v0v0c0,0,0,0,0,0c0,0,0,0,0,0l0,1.8c0,0,0,0.1,0,0.1c0,0,0,0,0,0
		c0,0.8,0.3,1.6,0.8,2.2c-0.5,0.6-0.8,1.4-0.8,2.3c0,0,0,0,0,0.1l0,6.4c0,0,0,0,0,0c0,0,0,0,0,0v0c0,0,0,0,0,0.1c0,0,0,0,0,0
		c0,1,0.4,1.8,1,2.4c-0.6,0.6-1,1.5-1,2.5v0c0,0,0,0,0,0l0,4.6c0,0,0,0,0,0c0,0,0,0,0,0v0c0,0,0,0,0,0.1c0.1,1.5,1.2,2.7,2.6,2.7
		c0.9,0,1.7-0.5,2.1-1.2c0.1,0.1,0.3,0.1,0.5,0.2c1.6,0.4,3.2-0.6,3.6-2.3c0-0.1,0-0.1,0-0.2c1.4,0.5,3.1-0.1,3.9-1.5
		c0.6-1.2,0.6-2.5,0-3.6c0.4-0.4,0.8-0.8,1-1.4c1-2,0.4-4.5-1.3-5.8c0.2-0.5,0.3-1,0.3-1.5c0-1.7-1.1-3.1-2.6-3.4
		c0.6-1.6,0.2-3.5-1.2-4.6c-0.8-0.6-1.7-0.8-2.6-0.7c-0.4,0.1-0.7,0.2-1.1,0.4C98.4-19.5,97.3-20.6,96-20.6L96-20.6z M92.8-20.6
		c-0.9,0-1.8,0.1-2.6,0.3l0,0l0,0c0,0,0,0,0,0.1l0,0c0.6,1.4-0.1,3-1.5,3.6c-1.4,0.6-3-0.1-3.6-1.5c0,0,0-0.1,0-0.1
		c-1.5,1-2.8,2.3-3.8,3.8c0.6,0.3,1.1,0.8,1.3,1.4l0,0c0.6,1.4-0.1,3-1.5,3.6c-0.6,0.3-1.3,0.3-1.9,0.1c-0.4,1.8-0.4,3.7,0,5.5
		c0,0,0.1,0,0.1,0c1.4-0.6,3,0.1,3.6,1.5l0,0c0.6,1.4-0.1,3-1.5,3.6c0,0-0.1,0-0.1,0c1,1.5,2.4,2.9,3.9,3.9C85.5,4.5,86,4,86.7,3.7
		c1.4-0.6,3,0.1,3.6,1.5l0,0c0.3,0.6,0.3,1.4,0,2c0.8,0.2,1.7,0.2,2.5,0.2v-8.3c-2.3-0.1-4.3-1.4-5.1-3.5c-1.2-2.9,0.1-6.3,3.1-7.5
		c0.7-0.3,1.4-0.4,2.1-0.4L92.8-20.6L92.8-20.6z M96-19.9c1,0,1.9,0.9,1.9,2.1c0,0,0,0.1,0,0.1c-0.2,0.2-0.4,0.4-0.5,0.6
		c-0.1,0.2-0.1,0.4,0.1,0.5c0.2,0.1,0.4,0.1,0.5-0.1c0,0,0,0,0,0c0.9-1.4,2.6-1.7,3.9-0.7c1.3,1,1.6,3,0.6,4.4
		c-0.5,0.8-1.3,1.2-2.1,1.3c-0.1,0-0.2,0-0.2,0c0-0.9-0.4-1.7-1-2.3c0.4-0.6,0.6-1.2,0.6-1.9c0-0.2-0.2-0.4-0.4-0.4
		c-0.2,0-0.4,0.2-0.4,0.4c0,0,0,0,0,0c0,1.5-1.1,2.7-2.4,2.7c-1.3,0-2.4-1.2-2.4-2.7c0,0,0,0,0,0c0,0,0,0,0,0l0-1.6l0-0.2
		C94.2-19,95-19.9,96-19.9L96-19.9z M98.7-13.4c0.9,0.9,1,2.5,0.2,3.5c-0.1,0.1-0.1,0.2-0.2,0.2c0,0-0.1,0.1-0.1,0.1
		c0,0,0-0.1-0.1-0.1c-0.5-0.6-1.2-1.1-2-1.1c0,0,0,0,0,0c-0.2,0-0.4,0.2-0.4,0.4c0,0.2,0.1,0.4,0.3,0.4c1.2,0.1,2.1,1.3,2,2.7
		c0,0.2-0.1,0.4-0.1,0.6c-0.1,0.2,0,0.4,0.2,0.5s0.4,0,0.5-0.2c0,0,0,0,0,0c0.1-0.2,0.1-0.5,0.2-0.8c0-0.6,0-1.1-0.2-1.6
		c0.2-0.1,0.4-0.3,0.5-0.5c0.3-0.4,0.6-0.9,0.7-1.4c0.9,0,1.7-0.3,2.4-0.9c0.1-0.1,0.1-0.1,0.2-0.2c0.2-0.2,0.3-0.4,0.5-0.6
		c0,0,0,0,0,0c1.2,0.1,2.2,1.2,2.2,2.7c0,0.4-0.1,0.8-0.2,1.1c0,0,0,0,0,0c-0.4-0.2-0.9-0.4-1.4-0.4c-0.5,0-0.9,0-1.3,0.1
		c-0.1-0.4-0.4-0.7-0.8-1c-0.1,0-0.1-0.1-0.2-0.1c-0.2,0-0.4,0.2-0.4,0.4c0,0.1,0.1,0.2,0.2,0.3c0.5,0.3,0.7,1,0.4,1.6
		c0,0.1-0.1,0.2-0.2,0.2c-0.1,0.2-0.1,0.4,0,0.5c0.2,0.1,0.4,0.1,0.5,0c0,0,0,0,0,0c0.1-0.1,0.2-0.2,0.3-0.4
		c0.1-0.3,0.2-0.6,0.2-0.8c0.8-0.2,1.7-0.1,2.4,0.3c1.7,1,2.3,3.3,1.4,5.1c-0.4,0.9-1.2,1.5-2,1.8C104-1,103.6-1,103.2-1.2
		s-0.8-0.6-1.2-1.2c0,0,0,0,0,0c0.5-0.4,0.9-1.1,0.9-1.8c0-0.2-0.1-0.4-0.3-0.4c0,0,0,0,0,0c-0.2,0-0.4,0.2-0.4,0.4
		c0,0.9-0.7,1.6-1.5,1.5c-0.1,0-0.2,0-0.3-0.1c-0.2-0.1-0.4,0-0.5,0.2c-0.1,0.2,0,0.4,0.2,0.5c0.2,0.1,0.4,0.1,0.5,0.1
		c0.3,0,0.5,0,0.7-0.1c0,0,0,0,0,0.1c0.4,0.7,0.9,1.1,1.5,1.4c0.5,0.3,1.1,0.3,1.7,0.2c0.3-0.1,0.5-0.2,0.8-0.4
		c0.4,0.8,0.5,1.9,0,2.8c-0.7,1.2-2,1.7-3.2,1.1c-0.1-1.3-0.9-2.5-2.2-2.9c0.1-0.6,0-1.3-0.4-1.8c-0.1-0.1-0.2-0.2-0.3-0.2
		c-0.2,0-0.4,0.2-0.4,0.4c0,0,0,0,0,0c0,0,0,0,0,0c0,0,0,0.1,0.1,0.1c0.5,0.7,0.4,1.8-0.3,2.3c-0.1,0.1-0.2,0.1-0.3,0.2
		c-0.2,0.1-0.3,0.3-0.2,0.5C98.3,2,98.5,2,98.7,2c0,0,0,0,0,0c0.2-0.1,0.3-0.2,0.5-0.3c0.3-0.2,0.5-0.5,0.6-0.8c0,0,0,0,0,0
		c1.2,0.3,1.9,1.7,1.6,3c-0.2,1-1,1.7-1.8,1.8c-0.1,0-0.1,0-0.2,0c-0.1,0-0.3,0-0.4,0c-0.1,0-0.1,0-0.2,0c-0.1,0-0.2-0.1-0.3-0.1
		c0.1-0.3,0.2-0.6,0.2-0.9c0-0.2-0.2-0.4-0.4-0.4c-0.2,0-0.4,0.2-0.4,0.3c0,0,0,0,0,0c0,1.1-0.7,2-1.7,2.1c-0.1,0-0.1,0-0.2,0
		c-1,0-1.8-0.9-1.9-2.1c0,0,0,0,0,0l0-4.4c0,0,0,0,0,0c-0.1-1.5,0.9-2.7,2.2-2.8c0.1,0.4,0.4,0.7,0.7,1c0.1,0.1,0.3,0.2,0.5,0.3
		c0.2,0.1,0.4,0,0.5-0.2c0.1-0.2,0-0.4-0.2-0.5c0,0,0,0,0,0c-0.1,0-0.2-0.1-0.3-0.2c-0.6-0.5-0.8-1.6-0.3-2.3
		c0.1-0.2,0.1-0.4-0.1-0.5c-0.1,0-0.1-0.1-0.2-0.1c-0.1,0-0.2,0.1-0.3,0.2c-0.3,0.5-0.5,1-0.4,1.5c-0.4,0-0.9,0.2-1.2,0.4
		c-0.5-0.5-0.9-1.2-0.8-2.1l0-3.2l0-3.2c0,0,0,0,0,0c0-0.7,0.2-1.3,0.6-1.8c0.5,0.4,1.1,0.6,1.8,0.6C97.4-12.6,98.1-12.9,98.7-13.4
		L98.7-13.4z"/>
</g>
</svg>
