<svg id="svg12" xmlns="http://www.w3.org/2000/svg" xmlns:xlink="http://www.w3.org/1999/xlink" viewBox="0 0 90 30"><defs><style>.cls-1{fill:url(#Dégradé_sans_nom_19);}.cls-2{fill:url(#Dégradé_sans_nom_34);}</style><linearGradient id="Dégradé_sans_nom_19" x1="-872.72" y1="533.06" x2="-871.72" y2="533.06" gradientTransform="matrix(23.65, 0, 0, -23.2, 20700.39, 12382.76)" gradientUnits="userSpaceOnUse"><stop offset="0" stop-color="#24388b"/><stop offset="1" stop-color="#51c3ee"/></linearGradient><linearGradient id="Dégradé_sans_nom_34" x1="-872.68" y1="533.06" x2="-871.68" y2="533.06" gradientTransform="matrix(23.65, 0, 0, -23.2, 20700.39, 12382.76)" gradientUnits="userSpaceOnUse"><stop offset="0" stop-color="#ef4136"/><stop offset="1" stop-color="#fbb040"/></linearGradient></defs><path id="path6" class="cls-1" d="M76.86,3.4a2.23,2.23,0,0,0-2.14,2.25v0h0v0a0,0,0,0,0,0,0V7.23a.15.15,0,0,0,0,.07h0a3,3,0,0,0,.66,1.79A3,3,0,0,0,74.71,11V16.3h0v.09h0a2.89,2.89,0,0,0,.82,2,3,3,0,0,0-.83,2.08h0v3.8h0v0a.07.07,0,0,0,0,.05,2.22,2.22,0,0,0,2.13,2.23,2.11,2.11,0,0,0,1.76-1,1.66,1.66,0,0,0,.37.14,2.46,2.46,0,0,0,3-1.92l0-.17a2.61,2.61,0,0,0,3.19-1.27,3.09,3.09,0,0,0,0-3A3.86,3.86,0,0,0,86,18.28a3.93,3.93,0,0,0-1.06-4.81,3,3,0,0,0,.27-1.25A2.8,2.8,0,0,0,83,9.43a3.33,3.33,0,0,0-1-3.8,2.74,2.74,0,0,0-2.19-.55A2.64,2.64,0,0,0,79,5.4a2.21,2.21,0,0,0-2.12-2Zm-2.64,0A12.31,12.31,0,0,0,72,3.63h0l0,.06v0a2.27,2.27,0,0,1-4.18,1.75l0-.08a11.45,11.45,0,0,0-3.15,3.17,2.26,2.26,0,0,1,1.08,1.14v0a2.26,2.26,0,0,1-2.83,3,11.77,11.77,0,0,0,0,4.58l.07,0a2.27,2.27,0,0,1,3,1.2h0a2.28,2.28,0,0,1-1.22,3l-.09,0a11.58,11.58,0,0,0,3.23,3.2,2.24,2.24,0,0,1,1.2-1.18,2.27,2.27,0,0,1,3,1.2h0a2.22,2.22,0,0,1,0,1.68,12.24,12.24,0,0,0,2.09.21V19.75a4.75,4.75,0,0,1-1.73-9.12,4.71,4.71,0,0,1,1.73-.37V3.4ZM76.86,4a1.63,1.63,0,0,1,1.53,1.71.3.3,0,0,0,0,.1,2.93,2.93,0,0,0-.45.54.3.3,0,1,0,.5.34h0a2.15,2.15,0,0,1,3.21-.59,2.76,2.76,0,0,1,.53,3.6,2.23,2.23,0,0,1-1.74,1.06h-.2a2.75,2.75,0,0,0-.82-1.93,2.91,2.91,0,0,0,.48-1.61.31.31,0,0,0-.3-.31.3.3,0,0,0-.31.3h0a2,2,0,1,1-4-.05v0h0V5.7A1.62,1.62,0,0,1,76.86,4Zm2.19,5.31a2.21,2.21,0,0,1,.15,2.86,1.54,1.54,0,0,1-.17.19l-.08.07-.06-.09a2.42,2.42,0,0,0-1.67-.95h0a.31.31,0,0,0-.31.3.31.31,0,0,0,.28.31,2,2,0,0,1,1.67,2.22,1.71,1.71,0,0,1-.1.51.31.31,0,0,0,.19.39.31.31,0,0,0,.39-.19h0a2.87,2.87,0,0,0,.12-.65A2.76,2.76,0,0,0,79.25,13a2.5,2.5,0,0,0,.43-.43,2.7,2.7,0,0,0,.54-1.18,2.8,2.8,0,0,0,2-.72l.15-.14a3.49,3.49,0,0,0,.37-.47l0,0a2.14,2.14,0,0,1,1.84,2.21,2.44,2.44,0,0,1-.17.9s0,0,0,0a3.18,3.18,0,0,0-1.14-.34,3,3,0,0,0-1.11.09,1.55,1.55,0,0,0-.65-.8.34.34,0,0,0-.17,0,.31.31,0,0,0-.29.32.28.28,0,0,0,.15.25,1,1,0,0,1,.34,1.3.91.91,0,0,1-.13.19.31.31,0,0,0,0,.44.31.31,0,0,0,.43,0v0a1.69,1.69,0,0,0,.21-.31,1.56,1.56,0,0,0,.17-.69,2.55,2.55,0,0,1,2,.26A3.3,3.3,0,0,1,85.44,18a2.9,2.9,0,0,1-1.65,1.5,1.16,1.16,0,0,1-.94-.09,2.82,2.82,0,0,1-1-1h0A2,2,0,0,0,82.61,17a.31.31,0,0,0-.28-.32h0a.32.32,0,0,0-.32.3,1.25,1.25,0,0,1-1.24,1.27,1,1,0,0,1-.29-.06.3.3,0,0,0-.38.2.29.29,0,0,0,.19.38,1.71,1.71,0,0,0,.45.09,1.77,1.77,0,0,0,.61-.08s0,0,0,0A3.34,3.34,0,0,0,82.57,20a1.79,1.79,0,0,0,1.41.13,3.31,3.31,0,0,0,.66-.31,2.5,2.5,0,0,1,0,2.32A2,2,0,0,1,82,23a2.63,2.63,0,0,0-1.82-2.4,2.06,2.06,0,0,0-.33-1.49.3.3,0,0,0-.56.17v.07a.19.19,0,0,0,0,.1,1.46,1.46,0,0,1-.24,1.89,1.22,1.22,0,0,1-.26.16.31.31,0,0,0-.17.4.31.31,0,0,0,.4.17h0a1.9,1.9,0,0,0,.4-.25A2,2,0,0,0,80,21.2h0a2.07,2.07,0,0,1,1.33,2.49,1.9,1.9,0,0,1-1.5,1.51l-.18,0a1.45,1.45,0,0,1-.36,0l-.18,0a1.33,1.33,0,0,1-.28-.1,2.55,2.55,0,0,0,.13-.78.31.31,0,0,0-.3-.31.3.3,0,0,0-.31.29v0A1.66,1.66,0,0,1,77,26h-.16a1.63,1.63,0,0,1-1.53-1.71h0v-3.7a2.14,2.14,0,0,1,1.85-2.31,2,2,0,0,0,.58.82,1.56,1.56,0,0,0,.4.25.3.3,0,1,0,.26-.55h0a1,1,0,0,1-.26-.16,1.45,1.45,0,0,1-.24-1.88.31.31,0,0,0-.07-.43.3.3,0,0,0-.18-.06.34.34,0,0,0-.25.14A2,2,0,0,0,77,17.67,2.43,2.43,0,0,0,76,18a2.3,2.3,0,0,1-.69-1.71V11a2.29,2.29,0,0,1,.5-1.49,2.43,2.43,0,0,0,3.23-.2Z"/><path d="M11,25.06a11,11,0,0,1-5.26-1.18,8,8,0,0,1-3.39-3.37,11.05,11.05,0,0,1-1.19-5.29,10.7,10.7,0,0,1,1.2-5.17A8.49,8.49,0,0,1,5.72,6.61a10.25,10.25,0,0,1,5.13-1.23,10.76,10.76,0,0,1,3.91.68,8.14,8.14,0,0,1,3,1.94,8.87,8.87,0,0,1,1.91,3.08,11.7,11.7,0,0,1,.67,4.09v1.59H3.3V13H14a2.7,2.7,0,0,0-.42-1.44,2.76,2.76,0,0,0-1.08-1A3.2,3.2,0,0,0,11,10.2a3.29,3.29,0,0,0-1.53.36,2.9,2.9,0,0,0-1.11,1A2.72,2.72,0,0,0,7.92,13v4.08A3.51,3.51,0,0,0,8.3,18.7a2.81,2.81,0,0,0,1.11,1.13,3.5,3.5,0,0,0,1.74.41,4.17,4.17,0,0,0,1.3-.2,2.87,2.87,0,0,0,1-.58,2.21,2.21,0,0,0,.62-.91h6.26A7.23,7.23,0,0,1,18.81,22a7.9,7.9,0,0,1-3.18,2.26A12.4,12.4,0,0,1,11,25.06Z"/><path d="M40.56,11.84H34.25a1.69,1.69,0,0,0-.41-1,2.45,2.45,0,0,0-.93-.66A3.3,3.3,0,0,0,31.67,10a3.25,3.25,0,0,0-1.52.32,1,1,0,0,0-.62.92,1,1,0,0,0,.37.78,3,3,0,0,0,1.47.56l3.87.69A9.06,9.06,0,0,1,39.61,15a4.29,4.29,0,0,1,1.45,3.37,5.52,5.52,0,0,1-1.22,3.53,7.55,7.55,0,0,1-3.26,2.31,12.64,12.64,0,0,1-4.71.82A11.47,11.47,0,0,1,25,23.27a6.36,6.36,0,0,1-2.75-4.72h6.8A1.94,1.94,0,0,0,30,20a3.59,3.59,0,0,0,1.93.49,3.28,3.28,0,0,0,1.56-.33,1,1,0,0,0,.63-.91,1,1,0,0,0-.54-.87,5,5,0,0,0-1.65-.53l-3.37-.59a8.11,8.11,0,0,1-4.38-1.94,5,5,0,0,1-1.44-3.68,5.44,5.44,0,0,1,1.05-3.37,6.66,6.66,0,0,1,3.05-2.11,13.73,13.73,0,0,1,4.7-.73A11,11,0,0,1,38,7.1,5.8,5.8,0,0,1,40.56,11.84Z"/><path d="M61.13,11.84H54.82a1.76,1.76,0,0,0-.41-1,2.45,2.45,0,0,0-.93-.66A3.35,3.35,0,0,0,52.23,10a3.23,3.23,0,0,0-1.51.32,1,1,0,0,0-.62.92,1,1,0,0,0,.36.78,3,3,0,0,0,1.47.56l3.88.69A9.11,9.11,0,0,1,60.18,15a4.31,4.31,0,0,1,1.44,3.37,5.51,5.51,0,0,1-1.21,3.53,7.67,7.67,0,0,1-3.26,2.31,12.66,12.66,0,0,1-4.72.82,11.51,11.51,0,0,1-6.84-1.79,6.39,6.39,0,0,1-2.75-4.72h6.81a1.94,1.94,0,0,0,.9,1.4,3.56,3.56,0,0,0,1.93.49A3.28,3.28,0,0,0,54,20.11a1,1,0,0,0,.63-.91,1,1,0,0,0-.54-.87,5,5,0,0,0-1.65-.53l-3.38-.59a8.11,8.11,0,0,1-4.37-1.94,4.88,4.88,0,0,1-1.44-3.68,5.31,5.31,0,0,1,1.05-3.37,6.63,6.63,0,0,1,3-2.11,13.77,13.77,0,0,1,4.7-.73A11,11,0,0,1,58.61,7.1,5.85,5.85,0,0,1,61.13,11.84Z"/><g id="SvgjsG10990"><path id="path6-2" data-name="path6" class="cls-2" d="M78,3.4a2.24,2.24,0,0,0-2.14,2.25v0h0V7.3h0a3,3,0,0,0,.67,1.79A3,3,0,0,0,75.82,11V16.3h0v.09h0a3,3,0,0,0,.83,2,3,3,0,0,0-.84,2.08h0v3.8h0v.09a2.23,2.23,0,0,0,2.14,2.23,2.09,2.09,0,0,0,1.75-1,1.74,1.74,0,0,0,.38.14,2.44,2.44,0,0,0,3-1.92,1.22,1.22,0,0,0,0-.17,2.61,2.61,0,0,0,3.19-1.27,3.09,3.09,0,0,0,0-3,3.69,3.69,0,0,0,.85-1.13A3.93,3.93,0,0,0,86,13.47a2.9,2.9,0,0,0,.28-1.25,2.79,2.79,0,0,0-2.17-2.79,3.33,3.33,0,0,0-1-3.8A2.72,2.72,0,0,0,81,5.08a2.64,2.64,0,0,0-.89.32A2.2,2.2,0,0,0,78,3.4Zm-2.63,0a12.33,12.33,0,0,0-2.19.23h0l0,.06v0A2.27,2.27,0,0,1,69,5.46l0-.08a11.63,11.63,0,0,0-3.16,3.17,2.28,2.28,0,0,1,1.09,1.14v0a2.26,2.26,0,0,1-1.21,3,2.29,2.29,0,0,1-1.61.05,11.58,11.58,0,0,0,0,4.58l.08,0a2.25,2.25,0,0,1,3,1.2h0a2.27,2.27,0,0,1-1.22,3l-.08,0a11.45,11.45,0,0,0,3.23,3.2,2.26,2.26,0,0,1,4.16,0h0a2.27,2.27,0,0,1,0,1.68,12.24,12.24,0,0,0,2.09.21V19.75a4.75,4.75,0,0,1-1.73-9.12,4.67,4.67,0,0,1,1.73-.37V3.4ZM78,4a1.63,1.63,0,0,1,1.54,1.71.16.16,0,0,0,0,.1,3.39,3.39,0,0,0-.45.54.31.31,0,1,0,.51.34h0a2.15,2.15,0,0,1,3.21-.59,2.76,2.76,0,0,1,.54,3.6,2.25,2.25,0,0,1-1.74,1.06h-.2a2.81,2.81,0,0,0-.83-1.93,3,3,0,0,0,.49-1.61.32.32,0,0,0-.3-.31.3.3,0,0,0-.31.3h0a2,2,0,1,1-4-.05v0h0V5.7A1.63,1.63,0,0,1,78,4Zm2.2,5.31a2.2,2.2,0,0,1,.14,2.86,1.46,1.46,0,0,1-.16.19l-.08.07L80,12.35a2.4,2.4,0,0,0-1.66-.95h0a.3.3,0,0,0-.31.3.31.31,0,0,0,.28.31A2,2,0,0,1,80,14.23a2.71,2.71,0,0,1-.1.51.3.3,0,0,0,.19.39.31.31,0,0,0,.39-.19h0a2.88,2.88,0,0,0,.13-.65,2.76,2.76,0,0,0-.2-1.29,2.19,2.19,0,0,0,.43-.43,2.7,2.7,0,0,0,.54-1.18,2.8,2.8,0,0,0,2-.72l.14-.14a2.89,2.89,0,0,0,.38-.47s0,0,0,0a2.14,2.14,0,0,1,1.85,2.21,2.66,2.66,0,0,1-.17.9l0,0a3.18,3.18,0,0,0-1.14-.34,2.92,2.92,0,0,0-1.1.09,1.55,1.55,0,0,0-.65-.8.35.35,0,0,0-.18,0,.32.32,0,0,0-.29.32.33.33,0,0,0,.15.25,1,1,0,0,1,.34,1.3.91.91,0,0,1-.13.19.31.31,0,1,0,.46.42v0a1.48,1.48,0,0,0,.21-.32,1.67,1.67,0,0,0,.17-.68,2.55,2.55,0,0,1,2,.26A3.3,3.3,0,0,1,86.55,18a2.87,2.87,0,0,1-1.65,1.5,1.14,1.14,0,0,1-.93-.09,2.75,2.75,0,0,1-1-1h0A2,2,0,0,0,83.73,17a.31.31,0,0,0-.29-.32h0a.3.3,0,0,0-.31.3,1.25,1.25,0,0,1-1.24,1.27,1.36,1.36,0,0,1-.29-.06.32.32,0,0,0-.39.2.3.3,0,0,0,.19.38,1.79,1.79,0,0,0,.46.09,1.71,1.71,0,0,0,.6-.08l0,0A3.32,3.32,0,0,0,83.68,20a1.81,1.81,0,0,0,1.42.13,3,3,0,0,0,.65-.31,2.5,2.5,0,0,1,0,2.32,2,2,0,0,1-2.62.91,2.63,2.63,0,0,0-1.82-2.4A2,2,0,0,0,81,19.12a.31.31,0,0,0-.26-.14.3.3,0,0,0-.3.31v.07a.31.31,0,0,0,0,.1,1.45,1.45,0,0,1-.24,1.89,1,1,0,0,1-.26.16.32.32,0,0,0-.17.4.31.31,0,0,0,.4.17h0a1.67,1.67,0,0,0,.4-.25,2,2,0,0,0,.5-.62h0a2.07,2.07,0,0,1,1.34,2.49A1.91,1.91,0,0,1,81,25.2l-.18,0a1.45,1.45,0,0,1-.36,0l-.19,0a1.25,1.25,0,0,1-.27-.1,2.54,2.54,0,0,0,.12-.78.3.3,0,0,0-.3-.31.31.31,0,0,0-.31.29v0A1.65,1.65,0,0,1,78.09,26h-.15a1.63,1.63,0,0,1-1.53-1.71h0V20.62s0,0,0,0a2.14,2.14,0,0,1,1.86-2.31,1.88,1.88,0,0,0,.58.82,1.36,1.36,0,0,0,.39.25.31.31,0,0,0,.41-.14.3.3,0,0,0-.15-.41h0a1,1,0,0,1-.26-.16A1.44,1.44,0,0,1,79,16.74a.32.32,0,0,0-.08-.43.28.28,0,0,0-.18-.06.32.32,0,0,0-.25.14,2.08,2.08,0,0,0-.35,1.27,2.54,2.54,0,0,0-1,.36,2.33,2.33,0,0,1-.7-1.71V11a2.41,2.41,0,0,1,.5-1.49,2.44,2.44,0,0,0,3.24-.2Z"/></g></svg>